<svg width="13" height="14" viewBox="0 0 13 14" fill="none" xmlns="http://www.w3.org/2000/svg">
<g clip-path="url(#clip0_180_350)">
<path d="M7.05659 4.04006H6.0552V6.22876H4.05242V7.3231H6.0552V9.51179H7.05659V7.3231H9.05937V6.22876H7.05659V4.04006ZM6.5559 1.3042C3.79206 1.3042 1.54895 3.75553 1.54895 6.77593C1.54895 9.79632 3.79206 12.2477 6.5559 12.2477C9.31973 12.2477 11.5628 9.79632 11.5628 6.77593C11.5628 3.75553 9.31973 1.3042 6.5559 1.3042ZM6.5559 11.1533C4.34783 11.1533 2.55034 9.18896 2.55034 6.77593C2.55034 4.3629 4.34783 2.39855 6.5559 2.39855C8.76396 2.39855 10.5615 4.3629 10.5615 6.77593C10.5615 9.18896 8.76396 11.1533 6.5559 11.1533Z" fill="#254682"/>
</g>
<defs>
<clipPath id="clip0_180_350">
<rect width="12.0167" height="13.1321" fill="white" transform="translate(0.547546 0.209961)"/>
</clipPath>
</defs>
</svg>
