<svg width="311" height="44" viewBox="0 0 311 44" fill="none" xmlns="http://www.w3.org/2000/svg">
<g filter="url(#filter0_d_22_6)">
<path d="M5 6C5 3.23858 7.23858 1 10 1H301C303.761 1 306 3.23858 306 6V30C306 32.7614 303.761 35 301 35H9.99999C7.23857 35 5 32.7614 5 30V6Z" fill="url(#paint0_linear_22_6)" shape-rendering="crispEdges"/>
<path d="M10 0.5C6.96243 0.5 4.5 2.96243 4.5 6V30C4.5 33.0376 6.96243 35.5 9.99999 35.5H301C304.038 35.5 306.5 33.0376 306.5 30V6C306.5 2.96244 304.038 0.5 301 0.5H10Z" stroke="#D9D9D9" shape-rendering="crispEdges"/>
</g>
<defs>
<filter id="filter0_d_22_6" x="0" y="0" width="311" height="44" filterUnits="userSpaceOnUse" color-interpolation-filters="sRGB">
<feFlood flood-opacity="0" result="BackgroundImageFix"/>
<feColorMatrix in="SourceAlpha" type="matrix" values="0 0 0 0 0 0 0 0 0 0 0 0 0 0 0 0 0 0 127 0" result="hardAlpha"/>
<feOffset dy="4"/>
<feGaussianBlur stdDeviation="2"/>
<feComposite in2="hardAlpha" operator="out"/>
<feColorMatrix type="matrix" values="0 0 0 0 0 0 0 0 0 0 0 0 0 0 0 0 0 0 0.25 0"/>
<feBlend mode="normal" in2="BackgroundImageFix" result="effect1_dropShadow_22_6"/>
<feBlend mode="normal" in="SourceGraphic" in2="effect1_dropShadow_22_6" result="shape"/>
</filter>
<linearGradient id="paint0_linear_22_6" x1="132.5" y1="101" x2="132.5" y2="135" gradientUnits="userSpaceOnUse">
<stop stop-color="#FEFCFA"/>
<stop offset="1" stop-color="#FEFAFA" stop-opacity="0"/>
</linearGradient>
</defs>
</svg>
