<svg width="13" height="14" viewBox="0 0 13 14" fill="none" xmlns="http://www.w3.org/2000/svg">
<g clip-path="url(#clip0_180_306)">
<path d="M7.16036 3.89236H8.16175V4.9867H7.16036V3.89236ZM7.16036 6.08105H8.16175V9.36409H7.16036V6.08105ZM7.66106 1.15649C4.89723 1.15649 2.65411 3.60783 2.65411 6.62822C2.65411 9.64862 4.89723 12.1 7.66106 12.1C10.4249 12.1 12.668 9.64862 12.668 6.62822C12.668 3.60783 10.4249 1.15649 7.66106 1.15649ZM7.66106 11.0056C5.453 11.0056 3.6555 9.04126 3.6555 6.62822C3.6555 4.21519 5.453 2.25084 7.66106 2.25084C9.86912 2.25084 11.6666 4.21519 11.6666 6.62822C11.6666 9.04126 9.86912 11.0056 7.66106 11.0056Z" fill="#254682"/>
</g>
<defs>
<clipPath id="clip0_180_306">
<rect width="12.0167" height="13.1321" fill="white" transform="translate(0.613831 0.0622559)"/>
</clipPath>
</defs>
</svg>
