<svg width="13" height="14" viewBox="0 0 13 14" fill="none" xmlns="http://www.w3.org/2000/svg">
<g clip-path="url(#clip0_180_347)">
<path d="M5.58261 3.88528H6.58399V4.97962H5.58261V3.88528ZM5.58261 6.07397H6.58399V9.35701H5.58261V6.07397ZM6.0833 1.14941C3.31947 1.14941 1.07635 3.60075 1.07635 6.62114C1.07635 9.64154 3.31947 12.0929 6.0833 12.0929C8.84713 12.0929 11.0902 9.64154 11.0902 6.62114C11.0902 3.60075 8.84713 1.14941 6.0833 1.14941ZM6.0833 10.9985C3.87524 10.9985 2.07774 9.03418 2.07774 6.62114C2.07774 4.20811 3.87524 2.24376 6.0833 2.24376C8.29136 2.24376 10.0889 4.20811 10.0889 6.62114C10.0889 9.03418 8.29136 10.9985 6.0833 10.9985Z" fill="#254682"/>
</g>
<defs>
<clipPath id="clip0_180_347">
<rect width="12.0167" height="13.1321" fill="white" transform="translate(0.0749512 0.0551758)"/>
</clipPath>
</defs>
</svg>
