<svg width="13" height="15" viewBox="0 0 13 15" fill="none" xmlns="http://www.w3.org/2000/svg">
<g clip-path="url(#clip0_180_344)">
<path d="M6.13302 4.78042H7.13441V5.87477H6.13302V4.78042ZM6.13302 6.96911H7.13441V10.2521H6.13302V6.96911ZM6.63372 2.04456C3.86988 2.04456 1.62677 4.49589 1.62677 7.51628C1.62677 10.5367 3.86988 12.988 6.63372 12.988C9.39755 12.988 11.6407 10.5367 11.6407 7.51628C11.6407 4.49589 9.39755 2.04456 6.63372 2.04456ZM6.63372 11.8937C4.42565 11.8937 2.62816 9.92932 2.62816 7.51628C2.62816 5.10325 4.42565 3.1389 6.63372 3.1389C8.84178 3.1389 10.6393 5.10325 10.6393 7.51628C10.6393 9.92932 8.84178 11.8937 6.63372 11.8937Z" fill="#254682"/>
</g>
<defs>
<clipPath id="clip0_180_344">
<rect width="12.0167" height="13.1321" fill="white" transform="translate(0.625366 0.950195)"/>
</clipPath>
</defs>
</svg>
