<svg width="11" height="13" viewBox="0 0 11 13" fill="none" xmlns="http://www.w3.org/2000/svg">
<path d="M9.2925 4.08269H8.62875V2.91618C8.62875 1.3064 7.14195 -9.15527e-05 5.31 -9.15527e-05C3.47805 -9.15527e-05 1.99125 1.3064 1.99125 2.91618V4.08269H1.3275C0.597375 4.08269 0 4.60762 0 5.2492V11.0817C0 11.7233 0.597375 12.2482 1.3275 12.2482H9.2925C10.0226 12.2482 10.62 11.7233 10.62 11.0817V5.2492C10.62 4.60762 10.0226 4.08269 9.2925 4.08269ZM3.31875 2.91618C3.31875 1.94798 4.20817 1.16642 5.31 1.16642C6.41182 1.16642 7.30125 1.94798 7.30125 2.91618V4.08269H3.31875V2.91618ZM9.2925 11.0817H1.3275V5.2492H9.2925V11.0817ZM5.31 9.33198C6.04012 9.33198 6.6375 8.80705 6.6375 8.16547C6.6375 7.52389 6.04012 6.99896 5.31 6.99896C4.57987 6.99896 3.9825 7.52389 3.9825 8.16547C3.9825 8.80705 4.57987 9.33198 5.31 9.33198Z" fill="white"/>
</svg>
