<svg width="17" height="15" viewBox="0 0 17 15" fill="none" xmlns="http://www.w3.org/2000/svg">
<g clip-path="url(#clip0_180_358)">
<path d="M10.7491 8.63439H10.2401L10.0597 8.46829C10.6911 7.767 11.0712 6.85656 11.0712 5.86614C11.0712 3.65769 9.19627 1.86755 6.88315 1.86755C4.57004 1.86755 2.69507 3.65769 2.69507 5.86614C2.69507 8.07459 4.57004 9.86472 6.88315 9.86472C7.92051 9.86472 8.8741 9.50178 9.60863 8.89891L9.7826 9.07116V9.55714L13.0042 12.6268L13.9642 11.7102L10.7491 8.63439ZM6.88315 8.63439C5.2788 8.63439 3.98371 7.3979 3.98371 5.86614C3.98371 4.33437 5.2788 3.09789 6.88315 3.09789C8.48751 3.09789 9.7826 4.33437 9.7826 5.86614C9.7826 7.3979 8.48751 8.63439 6.88315 8.63439Z" fill="white"/>
</g>
<defs>
<clipPath id="clip0_180_358">
<rect width="15.4637" height="14.764" fill="white" transform="translate(0.762085 0.0220947)"/>
</clipPath>
</defs>
</svg>
